0
SECTION
2
HEADER
9
$INSUNITS
70
1
0
ENDSEC
0
SECTION
2
TABLES
0
TABLE
2
LAYER
70
2
0
LAYER
2
CUT
70
0
62
7
6
CONTINUOUS
0
LAYER
2
REF
70
0
62
8
6
CONTINUOUS
0
ENDTAB
0
ENDSEC
0
SECTION
2
ENTITIES
0
LWPOLYLINE
8
CUT
90
48
70
1
10
11.989585
20
-0.499855
42
0.02083635
10
11.989585
20
0.499855
42
0.00000000
10
11.737144
20
0.489331
42
-0.40799497
10
11.477226
20
0.723388
42
0.16638757
10
8.627137
20
7.604112
42
-0.40799497
10
8.645423
20
7.953405
42
0.00000000
10
8.831368
20
8.124466
42
0.02083635
10
8.124466
20
8.831368
42
0.00000000
10
7.953405
20
8.645423
42
-0.40799497
10
7.604112
20
8.627137
42
0.16638757
10
0.723388
20
11.477226
42
-0.40799497
10
0.489331
20
11.737144
42
0.00000000
10
0.499855
20
11.989585
42
0.02083635
10
-0.499855
20
11.989585
42
0.00000000
10
-0.489331
20
11.737144
42
-0.40799497
10
-0.723388
20
11.477226
42
0.16638757
10
-7.604112
20
8.627137
42
-0.40799497
10
-7.953405
20
8.645423
42
0.00000000
10
-8.124466
20
8.831368
42
0.02083635
10
-8.831368
20
8.124466
42
0.00000000
10
-8.645423
20
7.953405
42
-0.40799497
10
-8.627137
20
7.604112
42
0.16638757
10
-11.477226
20
0.723388
42
-0.40799497
10
-11.737144
20
0.489331
42
0.00000000
10
-11.989585
20
0.499855
42
0.02083635
10
-11.989585
20
-0.499855
42
0.00000000
10
-11.737144
20
-0.489331
42
-0.40799497
10
-11.477226
20
-0.723388
42
0.16638757
10
-8.627137
20
-7.604112
42
-0.40799497
10
-8.645423
20
-7.953405
42
0.00000000
10
-8.831368
20
-8.124466
42
0.02083635
10
-8.124466
20
-8.831368
42
0.00000000
10
-7.953405
20
-8.645423
42
-0.40799497
10
-7.604112
20
-8.627137
42
0.16638757
10
-0.723388
20
-11.477226
42
-0.40799497
10
-0.489331
20
-11.737144
42
0.00000000
10
-0.499855
20
-11.989585
42
0.02083635
10
0.499855
20
-11.989585
42
0.00000000
10
0.489331
20
-11.737144
42
-0.40799497
10
0.723388
20
-11.477226
42
0.16638757
10
7.604112
20
-8.627137
42
-0.40799497
10
7.953405
20
-8.645423
42
0.00000000
10
8.124466
20
-8.831368
42
0.02083635
10
8.831368
20
-8.124466
42
0.00000000
10
8.645423
20
-7.953405
42
-0.40799497
10
8.627137
20
-7.604112
42
0.16638757
10
11.477226
20
-0.723388
42
-0.40799497
10
11.737144
20
-0.489331
42
0.00000000
0
CIRCLE
8
REF
10
0
20
0
30
0
40
12.0000
0
CIRCLE
8
REF
10
0
20
0
30
0
40
11.5000
0
ENDSEC
0
EOF
