0
SECTION
2
HEADER
9
$INSUNITS
70
1
0
ENDSEC
0
SECTION
2
TABLES
0
TABLE
2
LAYER
70
2
0
LAYER
2
CUT
70
0
62
7
6
CONTINUOUS
0
LAYER
2
REF
70
0
62
8
6
CONTINUOUS
0
ENDTAB
0
ENDSEC
0
SECTION
2
ENTITIES
0
CIRCLE
8
CUT
10
0.0000
20
0.0000
30
0.0
40
12.0000
0
CIRCLE
8
CUT
10
10.4102
20
1.3705
30
0.0
40
1.0000
0
CIRCLE
8
CUT
10
9.7007
20
4.0182
30
0.0
40
1.0000
0
CIRCLE
8
CUT
10
8.3302
20
6.3920
30
0.0
40
1.0000
0
CIRCLE
8
CUT
10
6.3920
20
8.3302
30
0.0
40
1.0000
0
CIRCLE
8
CUT
10
4.0182
20
9.7007
30
0.0
40
1.0000
0
CIRCLE
8
CUT
10
1.3705
20
10.4102
30
0.0
40
1.0000
0
CIRCLE
8
CUT
10
-1.3705
20
10.4102
30
0.0
40
1.0000
0
CIRCLE
8
CUT
10
-4.0182
20
9.7007
30
0.0
40
1.0000
0
CIRCLE
8
CUT
10
-6.3920
20
8.3302
30
0.0
40
1.0000
0
CIRCLE
8
CUT
10
-8.3302
20
6.3920
30
0.0
40
1.0000
0
CIRCLE
8
CUT
10
-9.7007
20
4.0182
30
0.0
40
1.0000
0
CIRCLE
8
CUT
10
-10.4102
20
1.3705
30
0.0
40
1.0000
0
CIRCLE
8
CUT
10
-10.4102
20
-1.3705
30
0.0
40
1.0000
0
CIRCLE
8
CUT
10
-9.7007
20
-4.0182
30
0.0
40
1.0000
0
CIRCLE
8
CUT
10
-8.3302
20
-6.3920
30
0.0
40
1.0000
0
CIRCLE
8
CUT
10
-6.3920
20
-8.3302
30
0.0
40
1.0000
0
CIRCLE
8
CUT
10
-4.0182
20
-9.7007
30
0.0
40
1.0000
0
CIRCLE
8
CUT
10
-1.3705
20
-10.4102
30
0.0
40
1.0000
0
CIRCLE
8
CUT
10
1.3705
20
-10.4102
30
0.0
40
1.0000
0
CIRCLE
8
CUT
10
4.0182
20
-9.7007
30
0.0
40
1.0000
0
CIRCLE
8
CUT
10
6.3920
20
-8.3302
30
0.0
40
1.0000
0
CIRCLE
8
CUT
10
8.3302
20
-6.3920
30
0.0
40
1.0000
0
CIRCLE
8
CUT
10
9.7007
20
-4.0182
30
0.0
40
1.0000
0
CIRCLE
8
CUT
10
10.4102
20
-1.3705
30
0.0
40
1.0000
0
CIRCLE
8
CUT
10
7.8640
20
0.0000
30
0.0
40
1.0000
0
CIRCLE
8
CUT
10
7.3897
20
2.6896
30
0.0
40
1.0000
0
CIRCLE
8
CUT
10
6.0242
20
5.0549
30
0.0
40
1.0000
0
CIRCLE
8
CUT
10
3.9320
20
6.8104
30
0.0
40
1.0000
0
CIRCLE
8
CUT
10
1.3656
20
7.7445
30
0.0
40
1.0000
0
CIRCLE
8
CUT
10
-1.3656
20
7.7445
30
0.0
40
1.0000
0
CIRCLE
8
CUT
10
-3.9320
20
6.8104
30
0.0
40
1.0000
0
CIRCLE
8
CUT
10
-6.0242
20
5.0549
30
0.0
40
1.0000
0
CIRCLE
8
CUT
10
-7.3897
20
2.6896
30
0.0
40
1.0000
0
CIRCLE
8
CUT
10
-7.8640
20
0.0000
30
0.0
40
1.0000
0
CIRCLE
8
CUT
10
-7.3897
20
-2.6896
30
0.0
40
1.0000
0
CIRCLE
8
CUT
10
-6.0242
20
-5.0549
30
0.0
40
1.0000
0
CIRCLE
8
CUT
10
-3.9320
20
-6.8104
30
0.0
40
1.0000
0
CIRCLE
8
CUT
10
-1.3656
20
-7.7445
30
0.0
40
1.0000
0
CIRCLE
8
CUT
10
1.3656
20
-7.7445
30
0.0
40
1.0000
0
CIRCLE
8
CUT
10
3.9320
20
-6.8104
30
0.0
40
1.0000
0
CIRCLE
8
CUT
10
6.0242
20
-5.0549
30
0.0
40
1.0000
0
CIRCLE
8
CUT
10
7.3897
20
-2.6896
30
0.0
40
1.0000
0
CIRCLE
8
CUT
10
5.2370
20
0.4582
30
0.0
40
1.0000
0
CIRCLE
8
CUT
10
4.3063
20
3.0153
30
0.0
40
1.0000
0
CIRCLE
8
CUT
10
2.2217
20
4.7645
30
0.0
40
1.0000
0
CIRCLE
8
CUT
10
-0.4582
20
5.2370
30
0.0
40
1.0000
0
CIRCLE
8
CUT
10
-3.0153
20
4.3063
30
0.0
40
1.0000
0
CIRCLE
8
CUT
10
-4.7645
20
2.2217
30
0.0
40
1.0000
0
CIRCLE
8
CUT
10
-5.2370
20
-0.4582
30
0.0
40
1.0000
0
CIRCLE
8
CUT
10
-4.3063
20
-3.0153
30
0.0
40
1.0000
0
CIRCLE
8
CUT
10
-2.2217
20
-4.7645
30
0.0
40
1.0000
0
CIRCLE
8
CUT
10
0.4582
20
-5.2370
30
0.0
40
1.0000
0
CIRCLE
8
CUT
10
3.0153
20
-4.3063
30
0.0
40
1.0000
0
CIRCLE
8
CUT
10
4.7645
20
-2.2217
30
0.0
40
1.0000
0
CIRCLE
8
CUT
10
2.6180
20
0.9529
30
0.0
40
1.0000
0
CIRCLE
8
CUT
10
0.4838
20
2.7437
30
0.0
40
1.0000
0
CIRCLE
8
CUT
10
-2.1342
20
1.7908
30
0.0
40
1.0000
0
CIRCLE
8
CUT
10
-2.6180
20
-0.9529
30
0.0
40
1.0000
0
CIRCLE
8
CUT
10
-0.4838
20
-2.7437
30
0.0
40
1.0000
0
CIRCLE
8
CUT
10
2.1342
20
-1.7908
30
0.0
40
1.0000
0
CIRCLE
8
REF
10
0.0000
20
0.0000
30
0.0
40
1.7500
0
CIRCLE
8
REF
10
0.0000
20
0.0000
30
0.0
40
10.5000
0
CIRCLE
8
REF
10
0.0000
20
0.0000
30
0.0
40
7.8640
0
CIRCLE
8
REF
10
0.0000
20
0.0000
30
0.0
40
5.2570
0
CIRCLE
8
REF
10
0.0000
20
0.0000
30
0.0
40
2.7860
0
ENDSEC
0
EOF
